<?xml version="1.0" encoding="utf-8" standalone="no"?>
<!DOCTYPE svg PUBLIC "-//W3C//DTD SVG 1.1//EN"
  "http://www.w3.org/Graphics/SVG/1.1/DTD/svg11.dtd">
<svg xmlns:xlink="http://www.w3.org/1999/xlink" width="460.8pt" height="345.6pt" viewBox="0 0 460.8 345.6" xmlns="http://www.w3.org/2000/svg" version="1.1">
 <metadata>
  <rdf:RDF xmlns:dc="http://purl.org/dc/elements/1.1/" xmlns:cc="http://creativecommons.org/ns#" xmlns:rdf="http://www.w3.org/1999/02/22-rdf-syntax-ns#">
   <cc:Work>
    <dc:type rdf:resource="http://purl.org/dc/dcmitype/StillImage"/>
    <dc:date>2025-01-23T16:06:20.791417</dc:date>
    <dc:format>image/svg+xml</dc:format>
    <dc:creator>
     <cc:Agent>
      <dc:title>Matplotlib v3.8.4, https://matplotlib.org/</dc:title>
     </cc:Agent>
    </dc:creator>
   </cc:Work>
  </rdf:RDF>
 </metadata>
 <defs>
  <style type="text/css">*{stroke-linejoin: round; stroke-linecap: butt}</style>
 </defs>
 <g id="figure_1">
  <g id="patch_1">
   <path d="M 0 345.6 
L 460.8 345.6 
L 460.8 0 
L 0 0 
z
" style="fill: #ffffff"/>
  </g>
  <g id="axes_1">
   <g id="patch_2">
    <path d="M 57.6 307.584 
L 414.72 307.584 
L 414.72 41.472 
L 57.6 41.472 
z
" style="fill: #ffffff"/>
   </g>
   <g id="patch_3">
    <path d="M 73.832727 307.584 
L 77.079247 307.584 
L 77.079247 307.349983 
L 73.832727 307.349983 
z
" clip-path="url(#pd766707758)" style="fill: #1f77b4"/>
   </g>
   <g id="patch_4">
    <path d="M 77.079247 307.584 
L 80.325821 307.584 
L 80.325821 307.584 
L 77.079247 307.584 
z
" clip-path="url(#pd766707758)" style="fill: #1f77b4"/>
   </g>
   <g id="patch_5">
    <path d="M 80.325821 307.584 
L 83.572341 307.584 
L 83.572341 307.584 
L 80.325821 307.584 
z
" clip-path="url(#pd766707758)" style="fill: #1f77b4"/>
   </g>
   <g id="patch_6">
    <path d="M 83.572341 307.584 
L 86.818916 307.584 
L 86.818916 307.584 
L 83.572341 307.584 
z
" clip-path="url(#pd766707758)" style="fill: #1f77b4"/>
   </g>
   <g id="patch_7">
    <path d="M 86.818916 307.584 
L 90.065435 307.584 
L 90.065435 307.584 
L 86.818916 307.584 
z
" clip-path="url(#pd766707758)" style="fill: #1f77b4"/>
   </g>
   <g id="patch_8">
    <path d="M 90.065435 307.584 
L 93.31201 307.584 
L 93.31201 307.584 
L 90.065435 307.584 
z
" clip-path="url(#pd766707758)" style="fill: #1f77b4"/>
   </g>
   <g id="patch_9">
    <path d="M 93.31201 307.584 
L 96.55853 307.584 
L 96.55853 307.584 
L 93.31201 307.584 
z
" clip-path="url(#pd766707758)" style="fill: #1f77b4"/>
   </g>
   <g id="patch_10">
    <path d="M 96.55853 307.584 
L 99.805104 307.584 
L 99.805104 288.16062 
L 96.55853 288.16062 
z
" clip-path="url(#pd766707758)" style="fill: #1f77b4"/>
   </g>
   <g id="patch_11">
    <path d="M 99.805104 307.584 
L 103.051624 307.584 
L 103.051624 268.035191 
L 99.805104 268.035191 
z
" clip-path="url(#pd766707758)" style="fill: #1f77b4"/>
   </g>
   <g id="patch_12">
    <path d="M 103.051624 307.584 
L 106.298198 307.584 
L 106.298198 307.115967 
L 103.051624 307.115967 
z
" clip-path="url(#pd766707758)" style="fill: #1f77b4"/>
   </g>
   <g id="patch_13">
    <path d="M 106.298198 307.584 
L 109.544718 307.584 
L 109.544718 307.584 
L 106.298198 307.584 
z
" clip-path="url(#pd766707758)" style="fill: #1f77b4"/>
   </g>
   <g id="patch_14">
    <path d="M 109.544718 307.584 
L 112.791292 307.584 
L 112.791292 306.647934 
L 109.544718 306.647934 
z
" clip-path="url(#pd766707758)" style="fill: #1f77b4"/>
   </g>
   <g id="patch_15">
    <path d="M 112.791292 307.584 
L 116.037812 307.584 
L 116.037812 296.819235 
L 112.791292 296.819235 
z
" clip-path="url(#pd766707758)" style="fill: #1f77b4"/>
   </g>
   <g id="patch_16">
    <path d="M 116.037812 307.584 
L 119.284387 307.584 
L 119.284387 280.204055 
L 116.037812 280.204055 
z
" clip-path="url(#pd766707758)" style="fill: #1f77b4"/>
   </g>
   <g id="patch_17">
    <path d="M 119.284387 307.584 
L 122.530906 307.584 
L 122.530906 194.553972 
L 119.284387 194.553972 
z
" clip-path="url(#pd766707758)" style="fill: #1f77b4"/>
   </g>
   <g id="patch_18">
    <path d="M 122.530906 307.584 
L 125.777481 307.584 
L 125.777481 240.42123 
L 122.530906 240.42123 
z
" clip-path="url(#pd766707758)" style="fill: #1f77b4"/>
   </g>
   <g id="patch_19">
    <path d="M 125.777481 307.584 
L 129.024001 307.584 
L 129.024001 273.65159 
L 125.777481 273.65159 
z
" clip-path="url(#pd766707758)" style="fill: #1f77b4"/>
   </g>
   <g id="patch_20">
    <path d="M 129.024001 307.584 
L 132.27052 307.584 
L 132.27052 300.329485 
L 129.024001 300.329485 
z
" clip-path="url(#pd766707758)" style="fill: #1f77b4"/>
   </g>
   <g id="patch_21">
    <path d="M 132.27052 307.584 
L 135.517095 307.584 
L 135.517095 305.711867 
L 132.27052 305.711867 
z
" clip-path="url(#pd766707758)" style="fill: #1f77b4"/>
   </g>
   <g id="patch_22">
    <path d="M 135.517095 307.584 
L 138.763615 307.584 
L 138.763615 306.647934 
L 135.517095 306.647934 
z
" clip-path="url(#pd766707758)" style="fill: #1f77b4"/>
   </g>
   <g id="patch_23">
    <path d="M 138.763615 307.584 
L 142.010189 307.584 
L 142.010189 305.47785 
L 138.763615 305.47785 
z
" clip-path="url(#pd766707758)" style="fill: #1f77b4"/>
   </g>
   <g id="patch_24">
    <path d="M 142.010189 307.584 
L 145.256709 307.584 
L 145.256709 301.733584 
L 142.010189 301.733584 
z
" clip-path="url(#pd766707758)" style="fill: #1f77b4"/>
   </g>
   <g id="patch_25">
    <path d="M 145.256709 307.584 
L 148.503283 307.584 
L 148.503283 291.904886 
L 145.256709 291.904886 
z
" clip-path="url(#pd766707758)" style="fill: #1f77b4"/>
   </g>
   <g id="patch_26">
    <path d="M 148.503283 307.584 
L 151.749803 307.584 
L 151.749803 286.054471 
L 148.503283 286.054471 
z
" clip-path="url(#pd766707758)" style="fill: #1f77b4"/>
   </g>
   <g id="patch_27">
    <path d="M 151.749803 307.584 
L 154.996377 307.584 
L 154.996377 290.96882 
L 151.749803 290.96882 
z
" clip-path="url(#pd766707758)" style="fill: #1f77b4"/>
   </g>
   <g id="patch_28">
    <path d="M 154.996377 307.584 
L 158.242897 307.584 
L 158.242897 293.777019 
L 154.996377 293.777019 
z
" clip-path="url(#pd766707758)" style="fill: #1f77b4"/>
   </g>
   <g id="patch_29">
    <path d="M 158.242897 307.584 
L 161.489471 307.584 
L 161.489471 296.351202 
L 158.242897 296.351202 
z
" clip-path="url(#pd766707758)" style="fill: #1f77b4"/>
   </g>
   <g id="patch_30">
    <path d="M 161.489471 307.584 
L 164.735991 307.584 
L 164.735991 297.521285 
L 161.489471 297.521285 
z
" clip-path="url(#pd766707758)" style="fill: #1f77b4"/>
   </g>
   <g id="patch_31">
    <path d="M 164.735991 307.584 
L 167.982566 307.584 
L 167.982566 297.521285 
L 164.735991 297.521285 
z
" clip-path="url(#pd766707758)" style="fill: #1f77b4"/>
   </g>
   <g id="patch_32">
    <path d="M 167.982566 307.584 
L 171.229085 307.584 
L 171.229085 297.287269 
L 167.982566 297.287269 
z
" clip-path="url(#pd766707758)" style="fill: #1f77b4"/>
   </g>
   <g id="patch_33">
    <path d="M 171.229085 307.584 
L 174.47566 307.584 
L 174.47566 294.011036 
L 171.229085 294.011036 
z
" clip-path="url(#pd766707758)" style="fill: #1f77b4"/>
   </g>
   <g id="patch_34">
    <path d="M 174.47566 307.584 
L 177.72218 307.584 
L 177.72218 288.394637 
L 174.47566 288.394637 
z
" clip-path="url(#pd766707758)" style="fill: #1f77b4"/>
   </g>
   <g id="patch_35">
    <path d="M 177.72218 307.584 
L 180.968754 307.584 
L 180.968754 261.950759 
L 177.72218 261.950759 
z
" clip-path="url(#pd766707758)" style="fill: #1f77b4"/>
   </g>
   <g id="patch_36">
    <path d="M 180.968754 307.584 
L 184.215274 307.584 
L 184.215274 250.249928 
L 180.968754 250.249928 
z
" clip-path="url(#pd766707758)" style="fill: #1f77b4"/>
   </g>
   <g id="patch_37">
    <path d="M 184.215274 307.584 
L 187.461794 307.584 
L 187.461794 263.822892 
L 184.215274 263.822892 
z
" clip-path="url(#pd766707758)" style="fill: #1f77b4"/>
   </g>
   <g id="patch_38">
    <path d="M 187.461794 307.584 
L 190.708368 307.584 
L 190.708368 258.908543 
L 187.461794 258.908543 
z
" clip-path="url(#pd766707758)" style="fill: #1f77b4"/>
   </g>
   <g id="patch_39">
    <path d="M 190.708368 307.584 
L 193.954888 307.584 
L 193.954888 243.931479 
L 190.708368 243.931479 
z
" clip-path="url(#pd766707758)" style="fill: #1f77b4"/>
   </g>
   <g id="patch_40">
    <path d="M 193.954888 307.584 
L 197.201462 307.584 
L 197.201462 240.187213 
L 193.954888 240.187213 
z
" clip-path="url(#pd766707758)" style="fill: #1f77b4"/>
   </g>
   <g id="patch_41">
    <path d="M 197.201462 307.584 
L 200.447982 307.584 
L 200.447982 241.82533 
L 197.201462 241.82533 
z
" clip-path="url(#pd766707758)" style="fill: #1f77b4"/>
   </g>
   <g id="patch_42">
    <path d="M 200.447982 307.584 
L 203.694556 307.584 
L 203.694556 224.742116 
L 200.447982 224.742116 
z
" clip-path="url(#pd766707758)" style="fill: #1f77b4"/>
   </g>
   <g id="patch_43">
    <path d="M 203.694556 307.584 
L 206.941076 307.584 
L 206.941076 250.951978 
L 203.694556 250.951978 
z
" clip-path="url(#pd766707758)" style="fill: #1f77b4"/>
   </g>
   <g id="patch_44">
    <path d="M 206.941076 307.584 
L 210.187651 307.584 
L 210.187651 242.52738 
L 206.941076 242.52738 
z
" clip-path="url(#pd766707758)" style="fill: #1f77b4"/>
   </g>
   <g id="patch_45">
    <path d="M 210.187651 307.584 
L 213.43417 307.584 
L 213.43417 247.441729 
L 210.187651 247.441729 
z
" clip-path="url(#pd766707758)" style="fill: #1f77b4"/>
   </g>
   <g id="patch_46">
    <path d="M 213.43417 307.584 
L 216.680745 307.584 
L 216.680745 222.635967 
L 213.43417 222.635967 
z
" clip-path="url(#pd766707758)" style="fill: #1f77b4"/>
   </g>
   <g id="patch_47">
    <path d="M 216.680745 307.584 
L 219.927265 307.584 
L 219.927265 215.615468 
L 216.680745 215.615468 
z
" clip-path="url(#pd766707758)" style="fill: #1f77b4"/>
   </g>
   <g id="patch_48">
    <path d="M 219.927265 307.584 
L 223.173839 307.584 
L 223.173839 205.318737 
L 219.927265 205.318737 
z
" clip-path="url(#pd766707758)" style="fill: #1f77b4"/>
   </g>
   <g id="patch_49">
    <path d="M 223.173839 307.584 
L 226.420359 307.584 
L 226.420359 204.38267 
L 223.173839 204.38267 
z
" clip-path="url(#pd766707758)" style="fill: #1f77b4"/>
   </g>
   <g id="patch_50">
    <path d="M 226.420359 307.584 
L 229.666933 307.584 
L 229.666933 224.976133 
L 226.420359 224.976133 
z
" clip-path="url(#pd766707758)" style="fill: #1f77b4"/>
   </g>
   <g id="patch_51">
    <path d="M 229.666933 307.584 
L 232.913453 307.584 
L 232.913453 226.380233 
L 229.666933 226.380233 
z
" clip-path="url(#pd766707758)" style="fill: #1f77b4"/>
   </g>
   <g id="patch_52">
    <path d="M 232.913453 307.584 
L 236.159973 307.584 
L 236.159973 220.763834 
L 232.913453 220.763834 
z
" clip-path="url(#pd766707758)" style="fill: #1f77b4"/>
   </g>
   <g id="patch_53">
    <path d="M 236.159973 307.584 
L 239.406547 307.584 
L 239.406547 191.979789 
L 236.159973 191.979789 
z
" clip-path="url(#pd766707758)" style="fill: #1f77b4"/>
   </g>
   <g id="patch_54">
    <path d="M 239.406547 307.584 
L 242.653067 307.584 
L 242.653067 202.042504 
L 239.406547 202.042504 
z
" clip-path="url(#pd766707758)" style="fill: #1f77b4"/>
   </g>
   <g id="patch_55">
    <path d="M 242.653067 307.584 
L 245.899641 307.584 
L 245.899641 218.891701 
L 242.653067 218.891701 
z
" clip-path="url(#pd766707758)" style="fill: #1f77b4"/>
   </g>
   <g id="patch_56">
    <path d="M 245.899641 307.584 
L 249.146161 307.584 
L 249.146161 213.743335 
L 245.899641 213.743335 
z
" clip-path="url(#pd766707758)" style="fill: #1f77b4"/>
   </g>
   <g id="patch_57">
    <path d="M 249.146161 307.584 
L 252.392735 307.584 
L 252.392735 218.891701 
L 249.146161 218.891701 
z
" clip-path="url(#pd766707758)" style="fill: #1f77b4"/>
   </g>
   <g id="patch_58">
    <path d="M 252.392735 307.584 
L 255.639255 307.584 
L 255.639255 199.468321 
L 252.392735 199.468321 
z
" clip-path="url(#pd766707758)" style="fill: #1f77b4"/>
   </g>
   <g id="patch_59">
    <path d="M 255.639255 307.584 
L 258.88583 307.584 
L 258.88583 167.408044 
L 255.639255 167.408044 
z
" clip-path="url(#pd766707758)" style="fill: #1f77b4"/>
   </g>
   <g id="patch_60">
    <path d="M 258.88583 307.584 
L 262.132349 307.584 
L 262.132349 113.116188 
L 258.88583 113.116188 
z
" clip-path="url(#pd766707758)" style="fill: #1f77b4"/>
   </g>
   <g id="patch_61">
    <path d="M 262.132349 307.584 
L 265.378924 307.584 
L 265.378924 95.096909 
L 262.132349 95.096909 
z
" clip-path="url(#pd766707758)" style="fill: #1f77b4"/>
   </g>
   <g id="patch_62">
    <path d="M 265.378924 307.584 
L 268.625444 307.584 
L 268.625444 73.099346 
L 265.378924 73.099346 
z
" clip-path="url(#pd766707758)" style="fill: #1f77b4"/>
   </g>
   <g id="patch_63">
    <path d="M 268.625444 307.584 
L 271.872018 307.584 
L 271.872018 56.25015 
L 268.625444 56.25015 
z
" clip-path="url(#pd766707758)" style="fill: #1f77b4"/>
   </g>
   <g id="patch_64">
    <path d="M 271.872018 307.584 
L 275.118538 307.584 
L 275.118538 54.144 
L 271.872018 54.144 
z
" clip-path="url(#pd766707758)" style="fill: #1f77b4"/>
   </g>
   <g id="patch_65">
    <path d="M 275.118538 307.584 
L 278.365112 307.584 
L 278.365112 101.415357 
L 275.118538 101.415357 
z
" clip-path="url(#pd766707758)" style="fill: #1f77b4"/>
   </g>
   <g id="patch_66">
    <path d="M 278.365112 307.584 
L 281.611632 307.584 
L 281.611632 134.645717 
L 278.365112 134.645717 
z
" clip-path="url(#pd766707758)" style="fill: #1f77b4"/>
   </g>
   <g id="patch_67">
    <path d="M 281.611632 307.584 
L 284.858206 307.584 
L 284.858206 167.174028 
L 281.611632 167.174028 
z
" clip-path="url(#pd766707758)" style="fill: #1f77b4"/>
   </g>
   <g id="patch_68">
    <path d="M 284.858206 307.584 
L 288.104726 307.584 
L 288.104726 216.785551 
L 284.858206 216.785551 
z
" clip-path="url(#pd766707758)" style="fill: #1f77b4"/>
   </g>
   <g id="patch_69">
    <path d="M 288.104726 307.584 
L 291.351246 307.584 
L 291.351246 257.270427 
L 288.104726 257.270427 
z
" clip-path="url(#pd766707758)" style="fill: #1f77b4"/>
   </g>
   <g id="patch_70">
    <path d="M 291.351246 307.584 
L 294.59782 307.584 
L 294.59782 274.821673 
L 291.351246 274.821673 
z
" clip-path="url(#pd766707758)" style="fill: #1f77b4"/>
   </g>
   <g id="patch_71">
    <path d="M 294.59782 307.584 
L 297.84434 307.584 
L 297.84434 288.86267 
L 294.59782 288.86267 
z
" clip-path="url(#pd766707758)" style="fill: #1f77b4"/>
   </g>
   <g id="patch_72">
    <path d="M 297.84434 307.584 
L 301.090915 307.584 
L 301.090915 298.223335 
L 297.84434 298.223335 
z
" clip-path="url(#pd766707758)" style="fill: #1f77b4"/>
   </g>
   <g id="patch_73">
    <path d="M 301.090915 307.584 
L 304.337434 307.584 
L 304.337434 303.137684 
L 301.090915 303.137684 
z
" clip-path="url(#pd766707758)" style="fill: #1f77b4"/>
   </g>
   <g id="patch_74">
    <path d="M 304.337434 307.584 
L 307.584009 307.584 
L 307.584009 305.711867 
L 304.337434 305.711867 
z
" clip-path="url(#pd766707758)" style="fill: #1f77b4"/>
   </g>
   <g id="patch_75">
    <path d="M 307.584009 307.584 
L 310.830529 307.584 
L 310.830529 305.47785 
L 307.584009 305.47785 
z
" clip-path="url(#pd766707758)" style="fill: #1f77b4"/>
   </g>
   <g id="patch_76">
    <path d="M 310.830529 307.584 
L 314.077103 307.584 
L 314.077103 307.115967 
L 310.830529 307.115967 
z
" clip-path="url(#pd766707758)" style="fill: #1f77b4"/>
   </g>
   <g id="patch_77">
    <path d="M 314.077103 307.584 
L 317.323623 307.584 
L 317.323623 307.115967 
L 314.077103 307.115967 
z
" clip-path="url(#pd766707758)" style="fill: #1f77b4"/>
   </g>
   <g id="patch_78">
    <path d="M 317.323623 307.584 
L 320.570197 307.584 
L 320.570197 306.647934 
L 317.323623 306.647934 
z
" clip-path="url(#pd766707758)" style="fill: #1f77b4"/>
   </g>
   <g id="patch_79">
    <path d="M 320.570197 307.584 
L 323.816717 307.584 
L 323.816717 307.584 
L 320.570197 307.584 
z
" clip-path="url(#pd766707758)" style="fill: #1f77b4"/>
   </g>
   <g id="patch_80">
    <path d="M 323.816717 307.584 
L 327.063291 307.584 
L 327.063291 307.584 
L 323.816717 307.584 
z
" clip-path="url(#pd766707758)" style="fill: #1f77b4"/>
   </g>
   <g id="patch_81">
    <path d="M 327.063291 307.584 
L 330.309811 307.584 
L 330.309811 307.584 
L 327.063291 307.584 
z
" clip-path="url(#pd766707758)" style="fill: #1f77b4"/>
   </g>
   <g id="patch_82">
    <path d="M 330.309811 307.584 
L 333.556385 307.584 
L 333.556385 307.584 
L 330.309811 307.584 
z
" clip-path="url(#pd766707758)" style="fill: #1f77b4"/>
   </g>
   <g id="patch_83">
    <path d="M 333.556385 307.584 
L 336.802905 307.584 
L 336.802905 307.584 
L 333.556385 307.584 
z
" clip-path="url(#pd766707758)" style="fill: #1f77b4"/>
   </g>
   <g id="patch_84">
    <path d="M 336.802905 307.584 
L 340.04948 307.584 
L 340.04948 307.584 
L 336.802905 307.584 
z
" clip-path="url(#pd766707758)" style="fill: #1f77b4"/>
   </g>
   <g id="patch_85">
    <path d="M 340.04948 307.584 
L 343.295999 307.584 
L 343.295999 307.584 
L 340.04948 307.584 
z
" clip-path="url(#pd766707758)" style="fill: #1f77b4"/>
   </g>
   <g id="patch_86">
    <path d="M 343.295999 307.584 
L 346.542519 307.584 
L 346.542519 307.584 
L 343.295999 307.584 
z
" clip-path="url(#pd766707758)" style="fill: #1f77b4"/>
   </g>
   <g id="patch_87">
    <path d="M 346.542519 307.584 
L 349.789094 307.584 
L 349.789094 307.584 
L 346.542519 307.584 
z
" clip-path="url(#pd766707758)" style="fill: #1f77b4"/>
   </g>
   <g id="patch_88">
    <path d="M 349.789094 307.584 
L 353.035613 307.584 
L 353.035613 307.584 
L 349.789094 307.584 
z
" clip-path="url(#pd766707758)" style="fill: #1f77b4"/>
   </g>
   <g id="patch_89">
    <path d="M 353.035613 307.584 
L 356.282188 307.584 
L 356.282188 307.584 
L 353.035613 307.584 
z
" clip-path="url(#pd766707758)" style="fill: #1f77b4"/>
   </g>
   <g id="patch_90">
    <path d="M 356.282188 307.584 
L 359.528708 307.584 
L 359.528708 307.584 
L 356.282188 307.584 
z
" clip-path="url(#pd766707758)" style="fill: #1f77b4"/>
   </g>
   <g id="patch_91">
    <path d="M 359.528708 307.584 
L 362.775282 307.584 
L 362.775282 307.584 
L 359.528708 307.584 
z
" clip-path="url(#pd766707758)" style="fill: #1f77b4"/>
   </g>
   <g id="patch_92">
    <path d="M 362.775282 307.584 
L 366.021802 307.584 
L 366.021802 307.584 
L 362.775282 307.584 
z
" clip-path="url(#pd766707758)" style="fill: #1f77b4"/>
   </g>
   <g id="patch_93">
    <path d="M 366.021802 307.584 
L 369.268376 307.584 
L 369.268376 307.584 
L 366.021802 307.584 
z
" clip-path="url(#pd766707758)" style="fill: #1f77b4"/>
   </g>
   <g id="patch_94">
    <path d="M 369.268376 307.584 
L 372.514896 307.584 
L 372.514896 307.584 
L 369.268376 307.584 
z
" clip-path="url(#pd766707758)" style="fill: #1f77b4"/>
   </g>
   <g id="patch_95">
    <path d="M 372.514896 307.584 
L 375.76147 307.584 
L 375.76147 307.584 
L 372.514896 307.584 
z
" clip-path="url(#pd766707758)" style="fill: #1f77b4"/>
   </g>
   <g id="patch_96">
    <path d="M 375.76147 307.584 
L 379.00799 307.584 
L 379.00799 307.584 
L 375.76147 307.584 
z
" clip-path="url(#pd766707758)" style="fill: #1f77b4"/>
   </g>
   <g id="patch_97">
    <path d="M 379.00799 307.584 
L 382.254565 307.584 
L 382.254565 307.584 
L 379.00799 307.584 
z
" clip-path="url(#pd766707758)" style="fill: #1f77b4"/>
   </g>
   <g id="patch_98">
    <path d="M 382.254565 307.584 
L 385.501084 307.584 
L 385.501084 307.349983 
L 382.254565 307.349983 
z
" clip-path="url(#pd766707758)" style="fill: #1f77b4"/>
   </g>
   <g id="patch_99">
    <path d="M 385.501084 307.584 
L 388.747659 307.584 
L 388.747659 307.115967 
L 385.501084 307.115967 
z
" clip-path="url(#pd766707758)" style="fill: #1f77b4"/>
   </g>
   <g id="patch_100">
    <path d="M 388.747659 307.584 
L 391.994179 307.584 
L 391.994179 306.647934 
L 388.747659 306.647934 
z
" clip-path="url(#pd766707758)" style="fill: #1f77b4"/>
   </g>
   <g id="patch_101">
    <path d="M 391.994179 307.584 
L 395.240753 307.584 
L 395.240753 307.115967 
L 391.994179 307.115967 
z
" clip-path="url(#pd766707758)" style="fill: #1f77b4"/>
   </g>
   <g id="patch_102">
    <path d="M 395.240753 307.584 
L 398.487273 307.584 
L 398.487273 306.647934 
L 395.240753 306.647934 
z
" clip-path="url(#pd766707758)" style="fill: #1f77b4"/>
   </g>
   <g id="matplotlib.axis_1">
    <g id="xtick_1">
     <g id="line2d_1">
      <defs>
       <path id="m6a5584fcbb" d="M 0 0 
L 0 3.5 
" style="stroke: #000000; stroke-width: 0.8"/>
      </defs>
      <g>
       <use xlink:href="#m6a5584fcbb" x="74.505799" y="307.584" style="stroke: #000000; stroke-width: 0.8"/>
      </g>
     </g>
     <g id="text_1">
      <!-- 1.1 -->
      <g transform="translate(66.554237 322.182437) scale(0.1 -0.1)">
       <defs>
        <path id="DejaVuSans-31" d="M 794 531 
L 1825 531 
L 1825 4091 
L 703 3866 
L 703 4441 
L 1819 4666 
L 2450 4666 
L 2450 531 
L 3481 531 
L 3481 0 
L 794 0 
L 794 531 
z
" transform="scale(0.015625)"/>
        <path id="DejaVuSans-2e" d="M 684 794 
L 1344 794 
L 1344 0 
L 684 0 
L 684 794 
z
" transform="scale(0.015625)"/>
       </defs>
       <use xlink:href="#DejaVuSans-31"/>
       <use xlink:href="#DejaVuSans-2e" x="63.623047"/>
       <use xlink:href="#DejaVuSans-31" x="95.410156"/>
      </g>
     </g>
    </g>
    <g id="xtick_2">
     <g id="line2d_2">
      <g>
       <use xlink:href="#m6a5584fcbb" x="120.172481" y="307.584" style="stroke: #000000; stroke-width: 0.8"/>
      </g>
     </g>
     <g id="text_2">
      <!-- 1.2 -->
      <g transform="translate(112.220919 322.182437) scale(0.1 -0.1)">
       <defs>
        <path id="DejaVuSans-32" d="M 1228 531 
L 3431 531 
L 3431 0 
L 469 0 
L 469 531 
Q 828 903 1448 1529 
Q 2069 2156 2228 2338 
Q 2531 2678 2651 2914 
Q 2772 3150 2772 3378 
Q 2772 3750 2511 3984 
Q 2250 4219 1831 4219 
Q 1534 4219 1204 4116 
Q 875 4013 500 3803 
L 500 4441 
Q 881 4594 1212 4672 
Q 1544 4750 1819 4750 
Q 2544 4750 2975 4387 
Q 3406 4025 3406 3419 
Q 3406 3131 3298 2873 
Q 3191 2616 2906 2266 
Q 2828 2175 2409 1742 
Q 1991 1309 1228 531 
z
" transform="scale(0.015625)"/>
       </defs>
       <use xlink:href="#DejaVuSans-31"/>
       <use xlink:href="#DejaVuSans-2e" x="63.623047"/>
       <use xlink:href="#DejaVuSans-32" x="95.410156"/>
      </g>
     </g>
    </g>
    <g id="xtick_3">
     <g id="line2d_3">
      <g>
       <use xlink:href="#m6a5584fcbb" x="165.839163" y="307.584" style="stroke: #000000; stroke-width: 0.8"/>
      </g>
     </g>
     <g id="text_3">
      <!-- 1.3 -->
      <g transform="translate(157.887601 322.182437) scale(0.1 -0.1)">
       <defs>
        <path id="DejaVuSans-33" d="M 2597 2516 
Q 3050 2419 3304 2112 
Q 3559 1806 3559 1356 
Q 3559 666 3084 287 
Q 2609 -91 1734 -91 
Q 1441 -91 1130 -33 
Q 819 25 488 141 
L 488 750 
Q 750 597 1062 519 
Q 1375 441 1716 441 
Q 2309 441 2620 675 
Q 2931 909 2931 1356 
Q 2931 1769 2642 2001 
Q 2353 2234 1838 2234 
L 1294 2234 
L 1294 2753 
L 1863 2753 
Q 2328 2753 2575 2939 
Q 2822 3125 2822 3475 
Q 2822 3834 2567 4026 
Q 2313 4219 1838 4219 
Q 1578 4219 1281 4162 
Q 984 4106 628 3988 
L 628 4550 
Q 988 4650 1302 4700 
Q 1616 4750 1894 4750 
Q 2613 4750 3031 4423 
Q 3450 4097 3450 3541 
Q 3450 3153 3228 2886 
Q 3006 2619 2597 2516 
z
" transform="scale(0.015625)"/>
       </defs>
       <use xlink:href="#DejaVuSans-31"/>
       <use xlink:href="#DejaVuSans-2e" x="63.623047"/>
       <use xlink:href="#DejaVuSans-33" x="95.410156"/>
      </g>
     </g>
    </g>
    <g id="xtick_4">
     <g id="line2d_4">
      <g>
       <use xlink:href="#m6a5584fcbb" x="211.505846" y="307.584" style="stroke: #000000; stroke-width: 0.8"/>
      </g>
     </g>
     <g id="text_4">
      <!-- 1.4 -->
      <g transform="translate(203.554283 322.182437) scale(0.1 -0.1)">
       <defs>
        <path id="DejaVuSans-34" d="M 2419 4116 
L 825 1625 
L 2419 1625 
L 2419 4116 
z
M 2253 4666 
L 3047 4666 
L 3047 1625 
L 3713 1625 
L 3713 1100 
L 3047 1100 
L 3047 0 
L 2419 0 
L 2419 1100 
L 313 1100 
L 313 1709 
L 2253 4666 
z
" transform="scale(0.015625)"/>
       </defs>
       <use xlink:href="#DejaVuSans-31"/>
       <use xlink:href="#DejaVuSans-2e" x="63.623047"/>
       <use xlink:href="#DejaVuSans-34" x="95.410156"/>
      </g>
     </g>
    </g>
    <g id="xtick_5">
     <g id="line2d_5">
      <g>
       <use xlink:href="#m6a5584fcbb" x="257.172528" y="307.584" style="stroke: #000000; stroke-width: 0.8"/>
      </g>
     </g>
     <g id="text_5">
      <!-- 1.5 -->
      <g transform="translate(249.220965 322.182437) scale(0.1 -0.1)">
       <defs>
        <path id="DejaVuSans-35" d="M 691 4666 
L 3169 4666 
L 3169 4134 
L 1269 4134 
L 1269 2991 
Q 1406 3038 1543 3061 
Q 1681 3084 1819 3084 
Q 2600 3084 3056 2656 
Q 3513 2228 3513 1497 
Q 3513 744 3044 326 
Q 2575 -91 1722 -91 
Q 1428 -91 1123 -41 
Q 819 9 494 109 
L 494 744 
Q 775 591 1075 516 
Q 1375 441 1709 441 
Q 2250 441 2565 725 
Q 2881 1009 2881 1497 
Q 2881 1984 2565 2268 
Q 2250 2553 1709 2553 
Q 1456 2553 1204 2497 
Q 953 2441 691 2322 
L 691 4666 
z
" transform="scale(0.015625)"/>
       </defs>
       <use xlink:href="#DejaVuSans-31"/>
       <use xlink:href="#DejaVuSans-2e" x="63.623047"/>
       <use xlink:href="#DejaVuSans-35" x="95.410156"/>
      </g>
     </g>
    </g>
    <g id="xtick_6">
     <g id="line2d_6">
      <g>
       <use xlink:href="#m6a5584fcbb" x="302.83921" y="307.584" style="stroke: #000000; stroke-width: 0.8"/>
      </g>
     </g>
     <g id="text_6">
      <!-- 1.6 -->
      <g transform="translate(294.887647 322.182437) scale(0.1 -0.1)">
       <defs>
        <path id="DejaVuSans-36" d="M 2113 2584 
Q 1688 2584 1439 2293 
Q 1191 2003 1191 1497 
Q 1191 994 1439 701 
Q 1688 409 2113 409 
Q 2538 409 2786 701 
Q 3034 994 3034 1497 
Q 3034 2003 2786 2293 
Q 2538 2584 2113 2584 
z
M 3366 4563 
L 3366 3988 
Q 3128 4100 2886 4159 
Q 2644 4219 2406 4219 
Q 1781 4219 1451 3797 
Q 1122 3375 1075 2522 
Q 1259 2794 1537 2939 
Q 1816 3084 2150 3084 
Q 2853 3084 3261 2657 
Q 3669 2231 3669 1497 
Q 3669 778 3244 343 
Q 2819 -91 2113 -91 
Q 1303 -91 875 529 
Q 447 1150 447 2328 
Q 447 3434 972 4092 
Q 1497 4750 2381 4750 
Q 2619 4750 2861 4703 
Q 3103 4656 3366 4563 
z
" transform="scale(0.015625)"/>
       </defs>
       <use xlink:href="#DejaVuSans-31"/>
       <use xlink:href="#DejaVuSans-2e" x="63.623047"/>
       <use xlink:href="#DejaVuSans-36" x="95.410156"/>
      </g>
     </g>
    </g>
    <g id="xtick_7">
     <g id="line2d_7">
      <g>
       <use xlink:href="#m6a5584fcbb" x="348.505892" y="307.584" style="stroke: #000000; stroke-width: 0.8"/>
      </g>
     </g>
     <g id="text_7">
      <!-- 1.7 -->
      <g transform="translate(340.554329 322.182437) scale(0.1 -0.1)">
       <defs>
        <path id="DejaVuSans-37" d="M 525 4666 
L 3525 4666 
L 3525 4397 
L 1831 0 
L 1172 0 
L 2766 4134 
L 525 4134 
L 525 4666 
z
" transform="scale(0.015625)"/>
       </defs>
       <use xlink:href="#DejaVuSans-31"/>
       <use xlink:href="#DejaVuSans-2e" x="63.623047"/>
       <use xlink:href="#DejaVuSans-37" x="95.410156"/>
      </g>
     </g>
    </g>
    <g id="xtick_8">
     <g id="line2d_8">
      <g>
       <use xlink:href="#m6a5584fcbb" x="394.172574" y="307.584" style="stroke: #000000; stroke-width: 0.8"/>
      </g>
     </g>
     <g id="text_8">
      <!-- 1.8 -->
      <g transform="translate(386.221012 322.182437) scale(0.1 -0.1)">
       <defs>
        <path id="DejaVuSans-38" d="M 2034 2216 
Q 1584 2216 1326 1975 
Q 1069 1734 1069 1313 
Q 1069 891 1326 650 
Q 1584 409 2034 409 
Q 2484 409 2743 651 
Q 3003 894 3003 1313 
Q 3003 1734 2745 1975 
Q 2488 2216 2034 2216 
z
M 1403 2484 
Q 997 2584 770 2862 
Q 544 3141 544 3541 
Q 544 4100 942 4425 
Q 1341 4750 2034 4750 
Q 2731 4750 3128 4425 
Q 3525 4100 3525 3541 
Q 3525 3141 3298 2862 
Q 3072 2584 2669 2484 
Q 3125 2378 3379 2068 
Q 3634 1759 3634 1313 
Q 3634 634 3220 271 
Q 2806 -91 2034 -91 
Q 1263 -91 848 271 
Q 434 634 434 1313 
Q 434 1759 690 2068 
Q 947 2378 1403 2484 
z
M 1172 3481 
Q 1172 3119 1398 2916 
Q 1625 2713 2034 2713 
Q 2441 2713 2670 2916 
Q 2900 3119 2900 3481 
Q 2900 3844 2670 4047 
Q 2441 4250 2034 4250 
Q 1625 4250 1398 4047 
Q 1172 3844 1172 3481 
z
" transform="scale(0.015625)"/>
       </defs>
       <use xlink:href="#DejaVuSans-31"/>
       <use xlink:href="#DejaVuSans-2e" x="63.623047"/>
       <use xlink:href="#DejaVuSans-38" x="95.410156"/>
      </g>
     </g>
    </g>
   </g>
   <g id="matplotlib.axis_2">
    <g id="ytick_1">
     <g id="line2d_9">
      <defs>
       <path id="m48cf294489" d="M 0 0 
L -3.5 0 
" style="stroke: #000000; stroke-width: 0.8"/>
      </defs>
      <g>
       <use xlink:href="#m48cf294489" x="57.6" y="307.584" style="stroke: #000000; stroke-width: 0.8"/>
      </g>
     </g>
     <g id="text_9">
      <!-- 0 -->
      <g transform="translate(44.2375 311.383219) scale(0.1 -0.1)">
       <defs>
        <path id="DejaVuSans-30" d="M 2034 4250 
Q 1547 4250 1301 3770 
Q 1056 3291 1056 2328 
Q 1056 1369 1301 889 
Q 1547 409 2034 409 
Q 2525 409 2770 889 
Q 3016 1369 3016 2328 
Q 3016 3291 2770 3770 
Q 2525 4250 2034 4250 
z
M 2034 4750 
Q 2819 4750 3233 4129 
Q 3647 3509 3647 2328 
Q 3647 1150 3233 529 
Q 2819 -91 2034 -91 
Q 1250 -91 836 529 
Q 422 1150 422 2328 
Q 422 3509 836 4129 
Q 1250 4750 2034 4750 
z
" transform="scale(0.015625)"/>
       </defs>
       <use xlink:href="#DejaVuSans-30"/>
      </g>
     </g>
    </g>
    <g id="ytick_2">
     <g id="line2d_10">
      <g>
       <use xlink:href="#m48cf294489" x="57.6" y="249.079845" style="stroke: #000000; stroke-width: 0.8"/>
      </g>
     </g>
     <g id="text_10">
      <!-- 500 -->
      <g transform="translate(31.5125 252.879064) scale(0.1 -0.1)">
       <use xlink:href="#DejaVuSans-35"/>
       <use xlink:href="#DejaVuSans-30" x="63.623047"/>
       <use xlink:href="#DejaVuSans-30" x="127.246094"/>
      </g>
     </g>
    </g>
    <g id="ytick_3">
     <g id="line2d_11">
      <g>
       <use xlink:href="#m48cf294489" x="57.6" y="190.57569" style="stroke: #000000; stroke-width: 0.8"/>
      </g>
     </g>
     <g id="text_11">
      <!-- 1000 -->
      <g transform="translate(25.15 194.374909) scale(0.1 -0.1)">
       <use xlink:href="#DejaVuSans-31"/>
       <use xlink:href="#DejaVuSans-30" x="63.623047"/>
       <use xlink:href="#DejaVuSans-30" x="127.246094"/>
       <use xlink:href="#DejaVuSans-30" x="190.869141"/>
      </g>
     </g>
    </g>
    <g id="ytick_4">
     <g id="line2d_12">
      <g>
       <use xlink:href="#m48cf294489" x="57.6" y="132.071535" style="stroke: #000000; stroke-width: 0.8"/>
      </g>
     </g>
     <g id="text_12">
      <!-- 1500 -->
      <g transform="translate(25.15 135.870753) scale(0.1 -0.1)">
       <use xlink:href="#DejaVuSans-31"/>
       <use xlink:href="#DejaVuSans-35" x="63.623047"/>
       <use xlink:href="#DejaVuSans-30" x="127.246094"/>
       <use xlink:href="#DejaVuSans-30" x="190.869141"/>
      </g>
     </g>
    </g>
    <g id="ytick_5">
     <g id="line2d_13">
      <g>
       <use xlink:href="#m48cf294489" x="57.6" y="73.56738" style="stroke: #000000; stroke-width: 0.8"/>
      </g>
     </g>
     <g id="text_13">
      <!-- 2000 -->
      <g transform="translate(25.15 77.366598) scale(0.1 -0.1)">
       <use xlink:href="#DejaVuSans-32"/>
       <use xlink:href="#DejaVuSans-30" x="63.623047"/>
       <use xlink:href="#DejaVuSans-30" x="127.246094"/>
       <use xlink:href="#DejaVuSans-30" x="190.869141"/>
      </g>
     </g>
    </g>
    <g id="text_14">
     <!-- Frequency -->
     <g transform="translate(19.070312 200.357687) rotate(-90) scale(0.1 -0.1)">
      <defs>
       <path id="DejaVuSans-46" d="M 628 4666 
L 3309 4666 
L 3309 4134 
L 1259 4134 
L 1259 2759 
L 3109 2759 
L 3109 2228 
L 1259 2228 
L 1259 0 
L 628 0 
L 628 4666 
z
" transform="scale(0.015625)"/>
       <path id="DejaVuSans-72" d="M 2631 2963 
Q 2534 3019 2420 3045 
Q 2306 3072 2169 3072 
Q 1681 3072 1420 2755 
Q 1159 2438 1159 1844 
L 1159 0 
L 581 0 
L 581 3500 
L 1159 3500 
L 1159 2956 
Q 1341 3275 1631 3429 
Q 1922 3584 2338 3584 
Q 2397 3584 2469 3576 
Q 2541 3569 2628 3553 
L 2631 2963 
z
" transform="scale(0.015625)"/>
       <path id="DejaVuSans-65" d="M 3597 1894 
L 3597 1613 
L 953 1613 
Q 991 1019 1311 708 
Q 1631 397 2203 397 
Q 2534 397 2845 478 
Q 3156 559 3463 722 
L 3463 178 
Q 3153 47 2828 -22 
Q 2503 -91 2169 -91 
Q 1331 -91 842 396 
Q 353 884 353 1716 
Q 353 2575 817 3079 
Q 1281 3584 2069 3584 
Q 2775 3584 3186 3129 
Q 3597 2675 3597 1894 
z
M 3022 2063 
Q 3016 2534 2758 2815 
Q 2500 3097 2075 3097 
Q 1594 3097 1305 2825 
Q 1016 2553 972 2059 
L 3022 2063 
z
" transform="scale(0.015625)"/>
       <path id="DejaVuSans-71" d="M 947 1747 
Q 947 1113 1208 752 
Q 1469 391 1925 391 
Q 2381 391 2643 752 
Q 2906 1113 2906 1747 
Q 2906 2381 2643 2742 
Q 2381 3103 1925 3103 
Q 1469 3103 1208 2742 
Q 947 2381 947 1747 
z
M 2906 525 
Q 2725 213 2448 61 
Q 2172 -91 1784 -91 
Q 1150 -91 751 415 
Q 353 922 353 1747 
Q 353 2572 751 3078 
Q 1150 3584 1784 3584 
Q 2172 3584 2448 3432 
Q 2725 3281 2906 2969 
L 2906 3500 
L 3481 3500 
L 3481 -1331 
L 2906 -1331 
L 2906 525 
z
" transform="scale(0.015625)"/>
       <path id="DejaVuSans-75" d="M 544 1381 
L 544 3500 
L 1119 3500 
L 1119 1403 
Q 1119 906 1312 657 
Q 1506 409 1894 409 
Q 2359 409 2629 706 
Q 2900 1003 2900 1516 
L 2900 3500 
L 3475 3500 
L 3475 0 
L 2900 0 
L 2900 538 
Q 2691 219 2414 64 
Q 2138 -91 1772 -91 
Q 1169 -91 856 284 
Q 544 659 544 1381 
z
M 1991 3584 
L 1991 3584 
z
" transform="scale(0.015625)"/>
       <path id="DejaVuSans-6e" d="M 3513 2113 
L 3513 0 
L 2938 0 
L 2938 2094 
Q 2938 2591 2744 2837 
Q 2550 3084 2163 3084 
Q 1697 3084 1428 2787 
Q 1159 2491 1159 1978 
L 1159 0 
L 581 0 
L 581 3500 
L 1159 3500 
L 1159 2956 
Q 1366 3272 1645 3428 
Q 1925 3584 2291 3584 
Q 2894 3584 3203 3211 
Q 3513 2838 3513 2113 
z
" transform="scale(0.015625)"/>
       <path id="DejaVuSans-63" d="M 3122 3366 
L 3122 2828 
Q 2878 2963 2633 3030 
Q 2388 3097 2138 3097 
Q 1578 3097 1268 2742 
Q 959 2388 959 1747 
Q 959 1106 1268 751 
Q 1578 397 2138 397 
Q 2388 397 2633 464 
Q 2878 531 3122 666 
L 3122 134 
Q 2881 22 2623 -34 
Q 2366 -91 2075 -91 
Q 1284 -91 818 406 
Q 353 903 353 1747 
Q 353 2603 823 3093 
Q 1294 3584 2113 3584 
Q 2378 3584 2631 3529 
Q 2884 3475 3122 3366 
z
" transform="scale(0.015625)"/>
       <path id="DejaVuSans-79" d="M 2059 -325 
Q 1816 -950 1584 -1140 
Q 1353 -1331 966 -1331 
L 506 -1331 
L 506 -850 
L 844 -850 
Q 1081 -850 1212 -737 
Q 1344 -625 1503 -206 
L 1606 56 
L 191 3500 
L 800 3500 
L 1894 763 
L 2988 3500 
L 3597 3500 
L 2059 -325 
z
" transform="scale(0.015625)"/>
      </defs>
      <use xlink:href="#DejaVuSans-46"/>
      <use xlink:href="#DejaVuSans-72" x="50.269531"/>
      <use xlink:href="#DejaVuSans-65" x="89.132812"/>
      <use xlink:href="#DejaVuSans-71" x="150.65625"/>
      <use xlink:href="#DejaVuSans-75" x="214.132812"/>
      <use xlink:href="#DejaVuSans-65" x="277.511719"/>
      <use xlink:href="#DejaVuSans-6e" x="339.035156"/>
      <use xlink:href="#DejaVuSans-63" x="402.414062"/>
      <use xlink:href="#DejaVuSans-79" x="457.394531"/>
     </g>
    </g>
   </g>
   <g id="patch_103">
    <path d="M 57.6 307.584 
L 57.6 41.472 
" style="fill: none; stroke: #000000; stroke-width: 0.8; stroke-linejoin: miter; stroke-linecap: square"/>
   </g>
   <g id="patch_104">
    <path d="M 414.72 307.584 
L 414.72 41.472 
" style="fill: none; stroke: #000000; stroke-width: 0.8; stroke-linejoin: miter; stroke-linecap: square"/>
   </g>
   <g id="patch_105">
    <path d="M 57.6 307.584 
L 414.72 307.584 
" style="fill: none; stroke: #000000; stroke-width: 0.8; stroke-linejoin: miter; stroke-linecap: square"/>
   </g>
   <g id="patch_106">
    <path d="M 57.6 41.472 
L 414.72 41.472 
" style="fill: none; stroke: #000000; stroke-width: 0.8; stroke-linejoin: miter; stroke-linecap: square"/>
   </g>
   <g id="text_15">
    <!-- inter-atom distances: -->
    <g transform="translate(172.375313 22.034625) scale(0.12 -0.12)">
     <defs>
      <path id="DejaVuSans-69" d="M 603 3500 
L 1178 3500 
L 1178 0 
L 603 0 
L 603 3500 
z
M 603 4863 
L 1178 4863 
L 1178 4134 
L 603 4134 
L 603 4863 
z
" transform="scale(0.015625)"/>
      <path id="DejaVuSans-74" d="M 1172 4494 
L 1172 3500 
L 2356 3500 
L 2356 3053 
L 1172 3053 
L 1172 1153 
Q 1172 725 1289 603 
Q 1406 481 1766 481 
L 2356 481 
L 2356 0 
L 1766 0 
Q 1100 0 847 248 
Q 594 497 594 1153 
L 594 3053 
L 172 3053 
L 172 3500 
L 594 3500 
L 594 4494 
L 1172 4494 
z
" transform="scale(0.015625)"/>
      <path id="DejaVuSans-2d" d="M 313 2009 
L 1997 2009 
L 1997 1497 
L 313 1497 
L 313 2009 
z
" transform="scale(0.015625)"/>
      <path id="DejaVuSans-61" d="M 2194 1759 
Q 1497 1759 1228 1600 
Q 959 1441 959 1056 
Q 959 750 1161 570 
Q 1363 391 1709 391 
Q 2188 391 2477 730 
Q 2766 1069 2766 1631 
L 2766 1759 
L 2194 1759 
z
M 3341 1997 
L 3341 0 
L 2766 0 
L 2766 531 
Q 2569 213 2275 61 
Q 1981 -91 1556 -91 
Q 1019 -91 701 211 
Q 384 513 384 1019 
Q 384 1609 779 1909 
Q 1175 2209 1959 2209 
L 2766 2209 
L 2766 2266 
Q 2766 2663 2505 2880 
Q 2244 3097 1772 3097 
Q 1472 3097 1187 3025 
Q 903 2953 641 2809 
L 641 3341 
Q 956 3463 1253 3523 
Q 1550 3584 1831 3584 
Q 2591 3584 2966 3190 
Q 3341 2797 3341 1997 
z
" transform="scale(0.015625)"/>
      <path id="DejaVuSans-6f" d="M 1959 3097 
Q 1497 3097 1228 2736 
Q 959 2375 959 1747 
Q 959 1119 1226 758 
Q 1494 397 1959 397 
Q 2419 397 2687 759 
Q 2956 1122 2956 1747 
Q 2956 2369 2687 2733 
Q 2419 3097 1959 3097 
z
M 1959 3584 
Q 2709 3584 3137 3096 
Q 3566 2609 3566 1747 
Q 3566 888 3137 398 
Q 2709 -91 1959 -91 
Q 1206 -91 779 398 
Q 353 888 353 1747 
Q 353 2609 779 3096 
Q 1206 3584 1959 3584 
z
" transform="scale(0.015625)"/>
      <path id="DejaVuSans-6d" d="M 3328 2828 
Q 3544 3216 3844 3400 
Q 4144 3584 4550 3584 
Q 5097 3584 5394 3201 
Q 5691 2819 5691 2113 
L 5691 0 
L 5113 0 
L 5113 2094 
Q 5113 2597 4934 2840 
Q 4756 3084 4391 3084 
Q 3944 3084 3684 2787 
Q 3425 2491 3425 1978 
L 3425 0 
L 2847 0 
L 2847 2094 
Q 2847 2600 2669 2842 
Q 2491 3084 2119 3084 
Q 1678 3084 1418 2786 
Q 1159 2488 1159 1978 
L 1159 0 
L 581 0 
L 581 3500 
L 1159 3500 
L 1159 2956 
Q 1356 3278 1631 3431 
Q 1906 3584 2284 3584 
Q 2666 3584 2933 3390 
Q 3200 3197 3328 2828 
z
" transform="scale(0.015625)"/>
      <path id="DejaVuSans-20" transform="scale(0.015625)"/>
      <path id="DejaVuSans-64" d="M 2906 2969 
L 2906 4863 
L 3481 4863 
L 3481 0 
L 2906 0 
L 2906 525 
Q 2725 213 2448 61 
Q 2172 -91 1784 -91 
Q 1150 -91 751 415 
Q 353 922 353 1747 
Q 353 2572 751 3078 
Q 1150 3584 1784 3584 
Q 2172 3584 2448 3432 
Q 2725 3281 2906 2969 
z
M 947 1747 
Q 947 1113 1208 752 
Q 1469 391 1925 391 
Q 2381 391 2643 752 
Q 2906 1113 2906 1747 
Q 2906 2381 2643 2742 
Q 2381 3103 1925 3103 
Q 1469 3103 1208 2742 
Q 947 2381 947 1747 
z
" transform="scale(0.015625)"/>
      <path id="DejaVuSans-73" d="M 2834 3397 
L 2834 2853 
Q 2591 2978 2328 3040 
Q 2066 3103 1784 3103 
Q 1356 3103 1142 2972 
Q 928 2841 928 2578 
Q 928 2378 1081 2264 
Q 1234 2150 1697 2047 
L 1894 2003 
Q 2506 1872 2764 1633 
Q 3022 1394 3022 966 
Q 3022 478 2636 193 
Q 2250 -91 1575 -91 
Q 1294 -91 989 -36 
Q 684 19 347 128 
L 347 722 
Q 666 556 975 473 
Q 1284 391 1588 391 
Q 1994 391 2212 530 
Q 2431 669 2431 922 
Q 2431 1156 2273 1281 
Q 2116 1406 1581 1522 
L 1381 1569 
Q 847 1681 609 1914 
Q 372 2147 372 2553 
Q 372 3047 722 3315 
Q 1072 3584 1716 3584 
Q 2034 3584 2315 3537 
Q 2597 3491 2834 3397 
z
" transform="scale(0.015625)"/>
      <path id="DejaVuSans-3a" d="M 750 794 
L 1409 794 
L 1409 0 
L 750 0 
L 750 794 
z
M 750 3309 
L 1409 3309 
L 1409 2516 
L 750 2516 
L 750 3309 
z
" transform="scale(0.015625)"/>
     </defs>
     <use xlink:href="#DejaVuSans-69"/>
     <use xlink:href="#DejaVuSans-6e" x="27.783203"/>
     <use xlink:href="#DejaVuSans-74" x="91.162109"/>
     <use xlink:href="#DejaVuSans-65" x="130.371094"/>
     <use xlink:href="#DejaVuSans-72" x="191.894531"/>
     <use xlink:href="#DejaVuSans-2d" x="226.632812"/>
     <use xlink:href="#DejaVuSans-61" x="262.716797"/>
     <use xlink:href="#DejaVuSans-74" x="323.996094"/>
     <use xlink:href="#DejaVuSans-6f" x="363.205078"/>
     <use xlink:href="#DejaVuSans-6d" x="424.386719"/>
     <use xlink:href="#DejaVuSans-20" x="521.798828"/>
     <use xlink:href="#DejaVuSans-64" x="553.585938"/>
     <use xlink:href="#DejaVuSans-69" x="617.0625"/>
     <use xlink:href="#DejaVuSans-73" x="644.845703"/>
     <use xlink:href="#DejaVuSans-74" x="696.945312"/>
     <use xlink:href="#DejaVuSans-61" x="736.154297"/>
     <use xlink:href="#DejaVuSans-6e" x="797.433594"/>
     <use xlink:href="#DejaVuSans-63" x="860.8125"/>
     <use xlink:href="#DejaVuSans-65" x="915.792969"/>
     <use xlink:href="#DejaVuSans-73" x="977.316406"/>
     <use xlink:href="#DejaVuSans-3a" x="1029.416016"/>
    </g>
    <!-- μ=1.45, σ=0.10 -->
    <g transform="translate(187.951875 35.472) scale(0.12 -0.12)">
     <defs>
      <path id="DejaVuSans-3bc" d="M 544 -1331 
L 544 3500 
L 1119 3500 
L 1119 1325 
Q 1119 872 1334 640 
Q 1550 409 1972 409 
Q 2434 409 2667 671 
Q 2900 934 2900 1459 
L 2900 3500 
L 3475 3500 
L 3475 806 
Q 3475 619 3529 530 
Q 3584 441 3700 441 
Q 3728 441 3778 458 
Q 3828 475 3916 513 
L 3916 50 
Q 3788 -22 3673 -56 
Q 3559 -91 3450 -91 
Q 3234 -91 3106 31 
Q 2978 153 2931 403 
Q 2775 156 2548 32 
Q 2322 -91 2016 -91 
Q 1697 -91 1473 31 
Q 1250 153 1119 397 
L 1119 -1331 
L 544 -1331 
z
" transform="scale(0.015625)"/>
      <path id="DejaVuSans-3d" d="M 678 2906 
L 4684 2906 
L 4684 2381 
L 678 2381 
L 678 2906 
z
M 678 1631 
L 4684 1631 
L 4684 1100 
L 678 1100 
L 678 1631 
z
" transform="scale(0.015625)"/>
      <path id="DejaVuSans-2c" d="M 750 794 
L 1409 794 
L 1409 256 
L 897 -744 
L 494 -744 
L 750 256 
L 750 794 
z
" transform="scale(0.015625)"/>
      <path id="DejaVuSans-3c3" d="M 1959 3044 
Q 1484 3044 1228 2700 
Q 959 2341 959 1747 
Q 959 1119 1226 758 
Q 1494 397 1959 397 
Q 2419 397 2687 759 
Q 2956 1122 2956 1747 
Q 2956 2319 2688 2700 
Q 2441 3044 1959 3044 
z
M 1959 3500 
L 3869 3500 
L 3869 2925 
L 3225 2925 
Q 3566 2438 3566 1747 
Q 3566 888 3138 400 
Q 2709 -91 1959 -91 
Q 1206 -91 781 400 
Q 353 888 353 1747 
Q 353 2613 781 3097 
Q 1134 3500 1959 3500 
z
" transform="scale(0.015625)"/>
     </defs>
     <use xlink:href="#DejaVuSans-3bc"/>
     <use xlink:href="#DejaVuSans-3d" x="63.623047"/>
     <use xlink:href="#DejaVuSans-31" x="147.412109"/>
     <use xlink:href="#DejaVuSans-2e" x="211.035156"/>
     <use xlink:href="#DejaVuSans-34" x="242.822266"/>
     <use xlink:href="#DejaVuSans-35" x="306.445312"/>
     <use xlink:href="#DejaVuSans-2c" x="370.068359"/>
     <use xlink:href="#DejaVuSans-20" x="401.855469"/>
     <use xlink:href="#DejaVuSans-3c3" x="433.642578"/>
     <use xlink:href="#DejaVuSans-3d" x="497.021484"/>
     <use xlink:href="#DejaVuSans-30" x="580.810547"/>
     <use xlink:href="#DejaVuSans-2e" x="644.433594"/>
     <use xlink:href="#DejaVuSans-31" x="676.220703"/>
     <use xlink:href="#DejaVuSans-30" x="739.84375"/>
    </g>
   </g>
  </g>
 </g>
 <defs>
  <clipPath id="pd766707758">
   <rect x="57.6" y="41.472" width="357.12" height="266.112"/>
  </clipPath>
 </defs>
</svg>
